<svg xmlns="http://www.w3.org/2000/svg" id="Layer_1" data-name="Layer 1" viewBox="0 0 446.83 99.9"><defs><style>.cls-1{fill:#3a3636}</style></defs><title>vector</title><g id="Layer_2" data-name="Layer 2"><g id="Layer_1-2" data-name="Layer 1-2"><polygon points="82.1 83.56 84.01 83.56 93.71 97.52 93.76 97.52 93.76 83.56 95.24 83.56 95.24 99.5 93.33 99.5 83.63 85.54 83.58 85.54 83.58 99.5 82.1 99.5 82.1 83.56" class="cls-1"/><path d="M106.94,83.56h1.53l6.71,15.93h-1.67l-1.73-4.23h-8.44l-1.8,4.23H100Zm.7,1.62-3.71,8.73h7.31Z" class="cls-1"/><rect width="1.48" height="15.93" x="119.93" y="83.56" class="cls-1"/><polygon points="128.23 83.56 129.72 83.56 129.72 98.14 137.15 98.14 137.15 99.5 128.23 99.5 128.23 83.56" class="cls-1"/><path d="M142.37,96.55a3.79,3.79,0,0,0,1.52,1.51,4.49,4.49,0,0,0,2.13.49,4.28,4.28,0,0,0,1.39-.22,3.54,3.54,0,0,0,1.14-.63,3,3,0,0,0,.77-1,2.94,2.94,0,0,0,.28-1.29,2.47,2.47,0,0,0-.35-1.37,2.82,2.82,0,0,0-.93-.89,6.77,6.77,0,0,0-1.32-.6l-1.51-.5c-.52-.16-1-.35-1.51-.56a5,5,0,0,1-1.32-.83,3.65,3.65,0,0,1-.93-1.27,4.52,4.52,0,0,1-.35-1.89,4.1,4.1,0,0,1,.41-1.88,4,4,0,0,1,1.13-1.37,5,5,0,0,1,1.63-.84,6.63,6.63,0,0,1,1.94-.28,6.24,6.24,0,0,1,2.42.46,4.59,4.59,0,0,1,1.93,1.54l-1.28.92a3.73,3.73,0,0,0-1.32-1.18,3.81,3.81,0,0,0-1.79-.4,4.89,4.89,0,0,0-1.37.19,3.45,3.45,0,0,0-1.13.56,2.75,2.75,0,0,0-.78.93,2.83,2.83,0,0,0-.29,1.33,2.57,2.57,0,0,0,.61,1.83,4.33,4.33,0,0,0,1.52,1,15.87,15.87,0,0,0,2,.65,9.73,9.73,0,0,1,2,.75A4.24,4.24,0,0,1,150.53,93a3.91,3.91,0,0,1,.61,2.33,4.32,4.32,0,0,1-.4,1.91,4.18,4.18,0,0,1-1.09,1.41,4.79,4.79,0,0,1-1.59.87,6.06,6.06,0,0,1-1.87.29,7.48,7.48,0,0,1-2.9-.55,5.31,5.31,0,0,1-2.29-1.8Z" class="cls-1"/><polygon points="173.51 83.56 175 83.56 175 90.58 183.91 90.58 183.91 83.56 185.4 83.56 185.4 99.5 183.91 99.5 183.91 91.93 175 91.93 175 99.5 173.51 99.5 173.51 83.56" class="cls-1"/><path d="M197.1,83.56h1.53l6.71,15.93h-1.66L202,95.26H193.5l-1.8,4.23h-1.55Zm.7,1.62-3.71,8.73h7.31Z" class="cls-1"/><rect width="1.49" height="15.93" x="210.09" y="83.56" class="cls-1"/><path d="M218.39,83.56h5.05a8.56,8.56,0,0,1,1.17.13,7,7,0,0,1,1.28.36,3.62,3.62,0,0,1,1.17.72,3.75,3.75,0,0,1,.85,1.19,4.09,4.09,0,0,1,.34,1.75,4,4,0,0,1-.39,1.89,3.69,3.69,0,0,1-1,1.2,4.19,4.19,0,0,1-1.32.69,9,9,0,0,1-1.37.31l4.64,7.65h-1.69l-4.48-7.56h-2.77V99.5h-1.49Zm1.49,7H223a5.13,5.13,0,0,0,1.9-.29,3.1,3.1,0,0,0,1.14-.72,2.24,2.24,0,0,0,.55-.92,2.83,2.83,0,0,0,0-1.8,2.27,2.27,0,0,0-.55-.92,3.14,3.14,0,0,0-1.14-.72,5.2,5.2,0,0,0-1.9-.29h-3.15Z" class="cls-1"/><path d="M251.27,94.86l2.3-4.14h1.53l-2.88,5.09,3.62,3.8h-2L251.45,97a8.74,8.74,0,0,1-2.13,2.09,5,5,0,0,1-2.82.77,5.5,5.5,0,0,1-1.9-.32,4.56,4.56,0,0,1-1.54-.93,4.45,4.45,0,0,1-1-1.46,4.59,4.59,0,0,1-.38-1.91,3.88,3.88,0,0,1,.32-1.62,4.57,4.57,0,0,1,.82-1.24,6.83,6.83,0,0,1,1.16-1l1.35-.87-.69-.85a7,7,0,0,1-.62-.91,6.15,6.15,0,0,1-.45-1,3.06,3.06,0,0,1-.18-1,3.49,3.49,0,0,1,.33-1.53,3.35,3.35,0,0,1,.88-1.14,4,4,0,0,1,1.28-.71,4.74,4.74,0,0,1,1.52-.25,3.87,3.87,0,0,1,2.51.94A3.15,3.15,0,0,1,251,86.53a3.38,3.38,0,0,1-.3,1.49,3.9,3.9,0,0,1-.81,1.13,6.28,6.28,0,0,1-1.14.88q-.63.38-1.3.74Zm-5.13-3.35q-.54.31-1.07.67a6.77,6.77,0,0,0-1,.8,3.77,3.77,0,0,0-.71,1,2.81,2.81,0,0,0-.27,1.25,3.25,3.25,0,0,0,.28,1.37,3.19,3.19,0,0,0,.77,1,3.32,3.32,0,0,0,1.15.68,4.15,4.15,0,0,0,1.41.23,3.4,3.4,0,0,0,1.18-.2,4.45,4.45,0,0,0,1-.54,5.58,5.58,0,0,0,.88-.78,7.87,7.87,0,0,0,.74-.93Zm1.1-7a2.48,2.48,0,0,0-1.71.62,2.08,2.08,0,0,0-.7,1.63,2.22,2.22,0,0,0,.17.83,4.78,4.78,0,0,0,.42.83,7,7,0,0,0,.57.77l.55.65c.32-.16.65-.34,1-.54a5.63,5.63,0,0,0,.95-.67,3.72,3.72,0,0,0,.71-.87,2.18,2.18,0,0,0,.28-1.11,2,2,0,0,0-.63-1.54,2.23,2.23,0,0,0-1.6-.6" class="cls-1"/><polygon points="268.94 83.56 271.17 83.56 276.97 96.93 282.78 83.56 284.9 83.56 284.9 99.5 283.41 99.5 283.41 85.45 283.36 85.45 277.29 99.5 276.63 99.5 270.47 85.45 270.42 85.45 270.42 99.5 268.94 99.5 268.94 83.56" class="cls-1"/><path d="M296.44,83.56H298l6.71,15.93H303l-1.73-4.23h-8.44L291,99.5h-1.55Zm.7,1.62-3.71,8.73h7.31Z" class="cls-1"/><polygon points="309.43 83.56 310.91 83.56 310.91 90.58 311.05 90.58 318.76 83.56 320.81 83.56 312.76 90.85 321.26 99.5 319.13 99.5 311.05 91.26 310.91 91.26 310.91 99.5 309.43 99.5 309.43 83.56" class="cls-1"/><polygon points="325.63 83.56 335.37 83.56 335.37 84.91 327.12 84.91 327.12 90.58 334.86 90.58 334.86 91.93 327.12 91.93 327.12 98.14 335.73 98.14 335.73 99.5 325.63 99.5 325.63 83.56" class="cls-1"/><path d="M352.75,93.4a10,10,0,0,1-.29,2.45,5.55,5.55,0,0,1-1,2.07,4.9,4.9,0,0,1-1.8,1.44,7.21,7.21,0,0,1-5.47,0,4.87,4.87,0,0,1-1.8-1.44,5.62,5.62,0,0,1-1-2.07,10.05,10.05,0,0,1-.29-2.45V83.56h1.49V93a11.26,11.26,0,0,0,.16,1.82,5.45,5.45,0,0,0,.62,1.8A3.8,3.8,0,0,0,344.7,98a4.9,4.9,0,0,0,4.48,0,3.8,3.8,0,0,0,1.31-1.37,5.54,5.54,0,0,0,.62-1.8,11.25,11.25,0,0,0,.16-1.82V83.56h1.49Z" class="cls-1"/><path d="M359.27,83.56h4.59a8.42,8.42,0,0,1,1.74.19,5,5,0,0,1,1.66.66,3.77,3.77,0,0,1,1.24,1.29,4,4,0,0,1,.48,2.06,4.12,4.12,0,0,1-.4,1.87,3.67,3.67,0,0,1-1.06,1.29,4.63,4.63,0,0,1-1.53.75,6.55,6.55,0,0,1-1.81.25h-3.44V99.5h-1.48Zm1.48,7h3.38a5.22,5.22,0,0,0,1.24-.15,3.16,3.16,0,0,0,1.08-.47,2.48,2.48,0,0,0,.77-.87,2.77,2.77,0,0,0,.29-1.33,2.65,2.65,0,0,0-.3-1.31,2.73,2.73,0,0,0-.79-.89,3.18,3.18,0,0,0-1.11-.51,5.28,5.28,0,0,0-1.26-.16h-3.29Z" class="cls-1"/><path d="M53,56.54c0,.49-.51.73-1.52.73H33.88q-1.6,0-1.61-.64t3.73-.9q2-.16,2.32-.69a11.33,11.33,0,0,0,.32-3.75V27.74H14.32V50.63q0,3.64.57,4.29c.38.43,1.64.73,3.8.89q2.11.16,2.1.73c0,.49-.54.73-1.62.73H1.62Q0,57.26,0,56.62t1.62-.81l2.18-.16a3.22,3.22,0,0,0,2.26-.8,19.36,19.36,0,0,0,.24-4.52V7.68Q6.3,4,5.94,3.4T3.4,2.67c-1.67-.12-2.66-.2-3-.26S0,2.13,0,1.73.35,1,1,1q.32,0,1.37.08,2,.16,9.54.16,4.12,0,5.74-.12A7.16,7.16,0,0,1,19.16,1q1.46,0,1.46.81T18,2.59q-2.63,0-3.15.61T14.32,7V25.72H38.66V8.27Q38.66,4,38,3.2t-4.53-.69c-.81,0-1.21-.24-1.21-.73S32.72,1,33.63,1H51.28c1.13,0,1.7.24,1.7.73s-1.19.76-3.56.81a5.25,5.25,0,0,0-1.54.16,1.37,1.37,0,0,0-1,.89,19.34,19.34,0,0,0-.2,3.8v43q0,3.88.4,4.53.8.89,4.63.89Q53,55.7,53,56.51" class="cls-1"/><path d="M119.79,56.74c0,.46-.41.69-1.22.69a12.3,12.3,0,0,1-1.46-.08L106.85,57l-10.27.32a8.92,8.92,0,0,1-1.21.08c-1.08,0-1.62-.28-1.62-.85s.73-.93,2.18-.93q7.12-.08,7.12-1.43a4.79,4.79,0,0,0-.17-.63l-.66-2.14-.41-1.13q-.73-2.51-3.55-11.09H81q-4.85,12.94-4.85,14.88a1.24,1.24,0,0,0,1,1.38c.16.06,1.51.16,4,.32q2.35.08,2.35.81t-2.1.81q-3.72,0-8.65-.32C71.9,57,71.07,57,70.21,57a11.46,11.46,0,0,0-2.51.27,5.38,5.38,0,0,1-1.05.13c-.75,0-1.13-.24-1.13-.73s.85-.76,2.55-.81a7.86,7.86,0,0,0,3.68-.77,4.67,4.67,0,0,0,1.78-2.64q10.4-29.87,16.94-48a9.29,9.29,0,0,1,.75-2.15L91.56.89c.16-.59.38-.89.65-.89s.29.16.4.48q1,3.15,4.77,13.18,2.91,7.85,14.48,39.39a3.86,3.86,0,0,0,1.66,2.33,11.82,11.82,0,0,0,4.17.59c1.4,0,2.1.3,2.1.76M97.88,37.37,93.51,25.31,89.63,14.1q-3.41,8.9-8.2,23.27Z" class="cls-1"/><path d="M176.33,54.84q0,3.4-5.66,3.4A11.28,11.28,0,0,1,160.8,53a12.4,12.4,0,0,1-2-4.37q-.45-2.1-1.33-10.67-.49-5.17-3.32-7.32t-9.22-2.3V53.79q0,1.62,2.59,2,.73.08,3.72.16,1,0,1.05.65c0,.49-.46.73-1.37.73h-19q-1.78,0-1.78-.73,0-.56,2.35-.65,3.8-.08,4.13-1a7.89,7.89,0,0,0,.32-3.16V7.2q0-3.23-.69-3.88t-4.17-.73q-2,0-2-.73c0-.54.43-.81,1.3-.81a4.83,4.83,0,0,1,.73.08l10.76.24q1.62,0,4.53-.11Q150.6,1,151.9,1q7.52,0,11.93,3.36a10.84,10.84,0,0,1,4.41,9.1,11.53,11.53,0,0,1-4.53,9.34q-4.53,3.68-12.3,4.33c-.48,0-.76.13-.81.24s.27.32.81.32q8.49,1.46,11.69,6T167.35,50q.64,6.65,4.53,6.65c.81,0,1.21-.16,1.21-.49A.23.23,0,0,0,173,56a3.72,3.72,0,0,1-.4-1.45q0-1.7,1.78-1.7a1.74,1.74,0,0,1,1.94,2M159.58,14.31q0-11.56-10-11.57a6.44,6.44,0,0,0-3.64.73,3,3,0,0,0-1,2.59V26.61q7.77.08,11.2-2.83t3.44-9.47" class="cls-1"/><path d="M248.39,56.74c0,.46-.56.69-1.69.69H226.55c-1.13,0-1.69-.24-1.69-.73s.78-.81,2.35-.81q4.12,0,5-.89.4-.41.4-5.43V7.6q0,.08-1,2.83-3.25,9.78-9.43,29.43l-3.75,12.87c-.76,2.54-1.29,3.8-1.62,3.8s-.78-.65-1.22-1.94q-2.33-7.37-13.21-36.74l-3.21-8.63V39.71q0,14.8.24,15,.57,1.05,3.88,1,2.67,0,2.67.81c0,.6-.57.89-1.7.89a10.79,10.79,0,0,1-1.94-.16,14.83,14.83,0,0,0-2-.16l-9.3.32c-1,0-1.46-.24-1.46-.73s1.54-.84,4.61-.89c1.29,0,2-.21,2.26-.65a14.59,14.59,0,0,0,.32-4.21V12.15q0-6.72-.16-7.29a2.21,2.21,0,0,0-1.37-1.54,19.4,19.4,0,0,0-4.53-.65q-1.29-.08-1.29-.73,0-.89,2.37-.89h5.65q4.82,0,6.79-.06.4,1,4.69,12.73,1.84,4.85,10.34,28.33,1.53-5.27,3.14-10.37L231,4.95q.8-2.31,1.42-3.82l12-.08a9.69,9.69,0,0,1,3,.24.8.8,0,0,1,.4.73q0,.81-1.37.81a18.66,18.66,0,0,0-3.07.16,4,4,0,0,0-2.67,1.3q-.4.57-.41,9.49V51.51q0,3.25.65,3.81,1,.73,5.26.73h.49q1.62,0,1.62.69" class="cls-1"/><path d="M316,29.52q0,12-7.24,20.38A22.65,22.65,0,0,1,291,58.23a24.24,24.24,0,0,1-18.77-8.45q-7.6-8.45-7.6-20.82,0-12.62,7.32-20.67a24.18,24.18,0,0,1,18.72-8,22.91,22.91,0,0,1,18,8.41Q316,17.07,316,29.52m-9.06.41q0-14.84-6.06-23.12a12.39,12.39,0,0,0-10.6-5.19q-6.47,0-10,4-6.55,7.31-6.55,23.77,0,13.06,4.57,20.28a14.38,14.38,0,0,0,12.82,7.22A12.53,12.53,0,0,0,302.66,50Q307,42.45,307,29.88" class="cls-1"/><path d="M383.55,1.86c0,.54-.68.78-2,.73h-3.24c-.87,0-1.37.15-1.54.45a8.2,8.2,0,0,0-.24,2.71V52.26q0,4.28-.08,5c0,.48-.21.73-.48.73s-.7-.3-1.13-.89L364.48,42q-9-13.25-21.86-33.07V54.18a1.42,1.42,0,0,0,1.22,1.34,33.25,33.25,0,0,0,5.48.36q1.06,0,1.06.65,0,.81-2.1.81-.72,0-4.61-.24c-.86,0-1.7-.08-2.51-.08l-1.42.16q-1.5.16-4.57.16h-.81c-1.24,0-1.86-.24-1.86-.73s.54-.73,1.62-.73q4.77-.08,5.54-.61t.77-3.44V11.9q0-6.72-2.75-8.42a9.33,9.33,0,0,0-4.61-.81q-2.11,0-2.11-.85c0-.51.41-.77,1.21-.77q1.62,0,4.13.16l2.67.16,2.27-.08q2.67,0,5.17-.24L374.33,42.7V6.7a29.88,29.88,0,0,0-.08-3,1.07,1.07,0,0,0-.65-.81,13.84,13.84,0,0,0-3.88-.29c-1.94,0-2.91-.24-2.91-.73s.65-.81,1.94-.81h13c1.19,0,1.78.27,1.78.81" class="cls-1"/><path d="M446.8,1.65q0,.61-1.38.61c-3,0-4.8.57-5.5,1.55q-1,.9-7,13.9-2.67,5.75-5,10.11a20.47,20.47,0,0,0-1.86,4.09,28.11,28.11,0,0,0-.24,4.75V52q0,2.68.69,3.16t4.81.73c1.46.1,2.19.36,2.19.76s-.38.61-1.13.61h-1L420.1,57q-4.77,0-7.85.16a6.91,6.91,0,0,1-1.13.08c-.76,0-1.13-.25-1.13-.76s.62-.8,1.86-.85q4.45-.16,5.26-.81t.81-3.87V34q-.81-1.78-4.69-9.46l-8.09-16q-1.21-2.35-2.91-5.26-.89-.8-3.84-.81t-3-.89q0-.65,1.29-.65,1.7,0,6.79.16,2.91.08,4.2.08L417.11,1A6.13,6.13,0,0,1,418.4.89c1,0,1.46.27,1.46.81s-.92.73-2.75.73q-5,0-5,1.79,0,1.38,5.09,11.15l7.35,13.91q2-3.61,4.59-8.92l4.78-9.62q2.7-5.21,2.71-6.84c0-.7-.46-1.11-1.37-1.22a21.23,21.23,0,0,0-3.8-.33q-1.78.08-1.78-.81c0-.44.51-.65,1.54-.65h7.36q8.25-.24,8.25.76" class="cls-1"/></g></g></svg>